<svg width="28" height="24" viewBox="0 0 28 24" fill="none" xmlns="http://www.w3.org/2000/svg"><path d="M12.157 19.429c-1.246 0-2.26 1.025-2.26 2.285 0 1.26 1.014 2.286 2.26 2.286 1.246 0 2.26-1.025 2.26-2.286 0-1.26-1.013-2.285-2.26-2.285zm9.038 0c-1.246 0-2.26 1.025-2.26 2.285 0 1.26 1.014 2.286 2.26 2.286 1.247 0 2.26-1.025 2.26-2.286 0-1.26-1.013-2.285-2.26-2.285zm-1.785-5.742a.971.971 0 001.068-.863l.448-4.318a.97.97 0 00-.868-1.062.972.972 0 00-1.068.863l-.449 4.318a.969.969 0 00.868 1.062z" fill="#00893D"/><mask id="a" fill="#fff"><path fill-rule="evenodd" clip-rule="evenodd" d="M26.973 3.84c.301 0 .586.138.77.375a.964.964 0 01.172.835l-3.012 11.516a.972.972 0 01-.942.725H9.834a.972.972 0 01-.942-.725L5.888 5.08a.959.959 0 01-.015-.058l-.807-3.087H1.83A.97.97 0 01.856.968.97.97 0 011.83 0h3.988c.444 0 .83.298.942.724l.815 3.115h19.398zM10.587 15.354h12.622l2.506-9.58H8.08l2.506 9.58z"/></mask><path fill-rule="evenodd" clip-rule="evenodd" d="M26.973 3.84c.301 0 .586.138.77.375a.964.964 0 01.172.835l-3.012 11.516a.972.972 0 01-.942.725H9.834a.972.972 0 01-.942-.725L5.888 5.08a.959.959 0 01-.015-.058l-.807-3.087H1.83A.97.97 0 01.856.968.97.97 0 011.83 0h3.988c.444 0 .83.298.942.724l.815 3.115h19.398zM10.587 15.354h12.622l2.506-9.58H8.08l2.506 9.58z" fill="#00893D"/><path d="M27.743 4.215l-.395.307.395-.307zm.172.835l.484.127-.484-.127zm-3.012 11.516l.484.127-.484-.127zm-16.01 0l-.485.127.484-.127zM5.887 5.08l.484-.127-.002-.007-.002-.007-.48.14zm-.015-.058l.488-.11-.002-.009-.002-.007-.484.126zm-.807-3.087l.484-.126-.098-.374h-.386v.5zM6.76.725l.484-.127-.484.126zm.815 3.114l-.484.127.098.373h.386v-.5zm15.634 11.516v.5h.386l.098-.374-.484-.126zm-12.622 0l-.484.126.098.374h.386v-.5zm15.128-9.58l.483.126.164-.627h-.647v.5zm-17.634 0v-.5h-.647l.163.626.484-.127zm20.057-1.867c-.28-.36-.71-.569-1.165-.569v1c.148 0 .286.068.375.183l.79-.614zm.26 1.269c.116-.44.02-.91-.26-1.269l-.79.614c.09.114.12.263.083.402l.968.253zm-3.011 11.516l3.012-11.516-.968-.253L24.42 16.44l.968.253zm-1.426 1.098c.67 0 1.256-.45 1.426-1.098l-.968-.253a.472.472 0 01-.458.35v1zm-14.127 0h14.127v-1H9.834v1zm-1.426-1.098c.17.648.757 1.098 1.426 1.098v-1a.472.472 0 01-.458-.351l-.968.253zM5.404 5.206l3.004 11.487.968-.253L6.372 4.953l-.968.253zm-.018-.073c.007.03.014.06.023.088l.959-.282a.463.463 0 01-.007-.028l-.975.222zm-.804-3.071l.807 3.087.968-.253-.807-3.087-.968.253zm-2.752.373h3.236v-1H1.83v1zM.356.968A1.47 1.47 0 001.83 2.435v-1a.47.47 0 01-.474-.467h-1zM1.83-.5A1.47 1.47 0 00.356.968h1A.47.47 0 011.83.5v-1zm3.988 0H1.83v1h3.988v-1zM7.244.598A1.472 1.472 0 005.818-.5v1c.218 0 .405.146.459.35l.967-.252zm.815 3.115L7.244.598 6.277.85l.814 3.115.968-.253zm18.914-.374H7.575v1h19.398v-1zM23.21 14.855H10.587v1h12.622v-1zm2.022-9.207l-2.506 9.58.968.253 2.505-9.58-.967-.253zm-17.15.626h17.634v-1H8.08v1zm2.99 8.954l-2.506-9.58-.968.253 2.506 9.58.967-.253z" fill="#00893D" mask="url(#a)"/></svg>